<?xml version="1.0" encoding="utf-8"?>
<!-- Generator: Adobe Illustrator 23.0.1, SVG Export Plug-In . SVG Version: 6.00 Build 0)  -->
<svg version="1.1" xmlns="http://www.w3.org/2000/svg" xmlns:xlink="http://www.w3.org/1999/xlink" x="0px" y="0px"
	 viewBox="0 0 495.79 506.35" style="enable-background:new 0 0 495.79 506.35;" xml:space="preserve">
<style type="text/css">
	.st0{fill:#3F66B0;}
</style>
<g id="medicalSym">
	<path class="st0" d="M305.87,503.01H187.92c-6.6,0-12-5.4-12-12V16.63c0-6.6,5.4-12,12-12h117.96c6.6,0,12,5.4,12,12v474.38
		C317.87,497.61,312.47,503.01,305.87,503.01z"/>
	<path class="st0" d="M60.58,78.15L1.6,180.3c-3.3,5.72-1.32,13.09,4.39,16.39l410.83,237.19c5.72,3.3,13.09,1.32,16.39-4.39
		l58.98-102.15c3.3-5.72,1.32-13.09-4.39-16.39L76.97,73.76C71.25,70.46,63.88,72.43,60.58,78.15z"/>
	<path class="st0" d="M494.19,180.3L435.21,78.15c-3.3-5.72-10.68-7.69-16.39-4.39L7.99,310.95c-5.72,3.3-7.69,10.68-4.39,16.39
		l58.98,102.15c3.3,5.72,10.68,7.69,16.39,4.39L489.8,196.69C495.51,193.39,497.49,186.02,494.19,180.3z"/>
</g>
<g id="snakeRod">
	<path d="M232.8,103.71c0,0,33.79-4.64,52.15,1.61c18.36,6.24,16.53,23.26,16.53,23.26s-21.42,3.8-28.52-14.45
		c-11.02-2.69-40.15,4.53-40.15,4.53s-15.24,4.81-18.91,18.49c-1.96,7.32-0.13,13.98,3.99,18.02c5.73,5.63,14.19,6.96,14.19,6.96
		l27.18,5.33c0,0,38.93,11.02,36.73,42.79c-2.2,31.77-38.75,38.75-38.75,38.75l-23.14,7.71c0,0-15.24,5.33-14.14,20.2
		c1.1,14.87,14.51,18.36,14.51,18.36l20.2,8.08c0,0,20.2,5.51,22.22,25.16c2.02,19.65-13.04,28.83-13.04,28.83l-9.73,6.24
		l-16.53,7.71c0,0-9.73,4.59-14.87,11.2c-5.14,6.61-9,21.12-9,21.12l-2.02-0.73c0,0,1.29-26.63,24.79-38.01l17.38-9.92
		c0,0,15.18-9.06,13.47-23.38c-1.1-12.12-12-15.43-12-15.43l-20.81-7.35c0,0-19.34-5.75-25.83-20.81
		c-6.49-15.06,1.22-28.16,1.22-28.16s7.83-13.47,22.77-18.12c14.94-4.65,24.24-8.08,24.24-8.08s24.48-6.98,21.42-28.16
		s-42.97-23.5-42.97-23.5s-14.94-0.49-25.59-9.3c-10.65-8.81-13.59-19.71-13.59-19.71s-4.28-18.12,6.98-33.05
		S232.8,103.71,232.8,103.71z"/>
	<path d="M232.8,103.71l-0.12-41.73c0,0-1.35-8.69,12-15.18c12.12,2.82,12.12,13.96,12.12,13.96l0.98,69.78l-1.22,145.8
		l-4.41,143.48c0,0,0.37,12.36-6.86,18.85c-6.24-5.51-7.35-16.53-7.35-16.53l-2.08-66.72l-2.57-78.23l-1.47-96.22L232.8,103.71z"/>
</g>
</svg>
